<svg xmlns="http://www.w3.org/2000/svg" viewBox="0 0 380.63 240.47"><defs><style>.cls-1{fill:#2a2861;}.cls-2{fill:#2376b8;}</style></defs><g id="Layer_2" data-name="Layer 2"><g id="Layer_1-2" data-name="Layer 1"><path class="cls-1" d="M20.2,206.74c36.27-33.11,75.46-62,119.79-83.51C193.05,97.5,248.85,84.28,308,87.7c13.34.78,26.6,2.88,39.9,4.39,1.19.14,2.77.17,2.62,1.92-.2,2.27-2.35,2-3.45,1.61-6.53-2.42-13.44-1.75-20.07-2.11-23.67-1.28-47.15,1-70,5.47a2.28,2.28,0,0,0,.39,3.22c23.8,26.36,47.27,53.05,73.09,77.5,13.33,12.6,27.51,23.76,46.92,25.1,1.52.1,3.2.57,3.2,2.45s-1.81,2.29-3.29,2.34c-31.54,1.16-62.81,3.91-86.47-25.08-19.87-24.36-41.59-47.26-61.55-71.63-1.41-1.72-2.85-3.4-4.31-5.15-2.37,1.69-1.32,3.88-1.32,5.67q0,33.25.31,66.52c0,3,.18,6.05.5,9.05,1.26,12,4.16,14.56,16,15.65,3.39.31,9.77-1.69,9.58,2.47-.21,4.62-62.6,2.4-88.78,2.2-2.52,0-5-.18-7.55-.36-1.26-.09-2.72-.39-2.6-2a3,3,0,0,1,1.79-2.06c4.93-1.3,4.64-4.34,3.17-8.17-5.92-15.5-11.75-31-17.84-47.17-18.8,12.55-35.69,26.78-51.81,42a605,605,0,0,0-43.21,45.8c-3.06,3.55-5.06,4.46-8.86.92-6.26-5.83-13-11.21-19.67-16.51-3.6-2.84-6.12-5.26-1-8.91m174.52-28.39,2.23-.47c0-19.73-.06-39.46,0-59.2,0-4.25-1.76-3.85-4.56-2.43-4.7,2.39-9.37,4.87-14.22,6.93-4.33,1.83-5.29,3.89-3.2,8.53,5.16,11.44,9.58,23.21,14.38,34.81C184.59,176.59,186.48,180.48,188.26,184.42Z"/><path class="cls-2" d="M114.78,125.77C102,133.71,91.49,142.08,76.9,139.46c-3.18-.57-6.81-.66-7.63,3.92C66.65,158,55.89,166.28,45,174.52c-3.79,2.87-7.33,6.07-12.58,10.46,6.62-16.6,12.53-31.41,18.44-46.21Q76.65,74.32,102.5,9.91C104.09,6,104.65-.17,110.2,0c4.94.15,5.58,6,7.1,9.75,12.48,30.75,24.6,61.65,37.16,92.37,1.81,4.44.29,5.61-3.29,7a207.71,207.71,0,0,0-19.33,8.49c-4.24,2.2-5.38.82-6.76-3.1C119,97.23,112.57,80,106.25,62.79c-.83-2.26-1.77-4.48-2.66-6.71-2.45.84-2.59,2.86-3.17,4.39C93,80.25,85.75,100.11,78.18,119.83c-1.82,4.75-1.05,6.17,4.12,6C92.49,125.57,102.7,125.77,114.78,125.77Z"/><path class="cls-2" d="M204.49,5.28c11.56,0,23.13-.08,34.69.06,2.28,0,5.93-.63,5.82,2.9-.08,2.8-3.41,2.2-5.56,2.43-11.7,1.27-14.59,3.54-15.06,15.43-.74,18.84-.76,37.72-.61,56.58,0,5-1.36,7-6.36,7.7A157.69,157.69,0,0,0,196,94.77c-4.68,1.31-5.63,0-5.59-4.39.16-17.36.05-34.71,0-52.07,0-3.27-.08-6.54-.25-9.81-.69-13.48-4.58-17.22-18-17.89-2.95-.15-8.13,1.61-8.18-2.57s5.13-2.6,8.06-2.66c10.8-.21,21.61-.08,32.42-.08Z"/><path class="cls-2" d="M234.62,87.82a5.85,5.85,0,0,1,2.64-5.46A21.8,21.8,0,0,0,239.83,80c16.75-18,34.87-34.79,50-54.28a34.78,34.78,0,0,0,3.46-5.28c2.09-4,2.86-7.81-2.89-9.86-1.49-.53-3-1.36-2.49-3.18.44-1.65,2.17-2,3.66-2,4.53.07,9.06.2,13.58.5,14.6,1,29.18-.18,43.77-.49,2.48,0,6.56-1.2,6.51,2.8,0,3.22-3.87,2.31-6.21,2.48-12.91.9-23.6,6.84-33.07,15-18.68,16.14-35.58,34.16-52.83,51.77-5.85,6-11.61,8.35-20.14,9.27C240.51,87.07,237.56,87.43,234.62,87.82Z"/><path class="cls-2" d="M2.46,209.52c-1.3-.13-2.45-.8-2.46-2.34s1.22-1.93,2.46-2.32c5.58-1.74,8.66,1.27,11,5.7"/></g></g></svg>